<?xml version="1.0" standalone="no"?>
<!DOCTYPE svg PUBLIC "-//W3C//DTD SVG 20010904//EN"
 "http://www.w3.org/TR/2001/REC-SVG-20010904/DTD/svg10.dtd">
<svg version="1.0" xmlns="http://www.w3.org/2000/svg"
 width="326.000000pt" height="410.000000pt" viewBox="0 0 326.000000 410.000000"
 preserveAspectRatio="xMidYMid meet">

<g transform="translate(0.000000,410.000000) scale(0.100000,-0.100000)"
fill="#000000" stroke="none">
<path d="M30 2048 l0 -2008 1600 0 1600 0 0 2005 0 2005 -422 1 c-233 1 -953
2 -1600 3 l-1178 1 0 -2007z m3138 385 l-3 -1558 -1539 0 -1538 0 0 1550 c0
853 1 1553 1 1558 1 4 694 7 1541 7 l1540 0 -2 -1557z m0 -1980 l-3 -357
-1535 2 c-844 1 -1538 2 -1541 2 -4 0 -7 160 -8 355 l-1 355 1545 0 1545 0 -2
-357z"/>
<path d="M2123 3434 c-4 -11 57 -79 217 -239 199 -199 223 -227 223 -256 0
-23 -8 -39 -27 -56 -55 -47 -57 -45 -360 256 -155 153 -292 282 -304 286 -86
26 -183 -71 -157 -157 4 -12 85 -102 180 -198 95 -96 178 -185 184 -197 14
-27 2 -59 -33 -92 l-26 -25 -44 43 c-38 37 -51 44 -86 44 -32 0 -48 -7 -71
-29 l-29 -28 -113 110 c-298 292 -338 325 -441 361 -68 24 -220 24 -298 0
-126 -38 -247 -154 -299 -284 -20 -49 -23 -76 -23 -173 0 -135 17 -193 89
-288 66 -88 185 -164 277 -178 40 -6 62 -25 340 -302 291 -290 296 -296 317
-359 23 -68 80 -160 127 -204 86 -80 211 -129 328 -129 188 0 352 105 434 277
33 71 37 87 40 178 8 196 -26 257 -280 504 l-188 184 20 22 c48 51 41 113 -19
169 -17 17 -31 34 -31 38 0 5 12 21 26 35 37 37 57 88 48 127 -5 23 -56 81
-190 217 -125 126 -184 194 -184 208 0 12 11 33 26 47 19 20 31 24 52 19 17
-4 127 -105 302 -280 179 -178 285 -276 303 -280 48 -12 93 3 130 44 43 48 53
88 34 132 -20 47 -442 469 -468 469 -11 0 -22 -7 -26 -16z m-911 -234 c88 -27
127 -57 323 -250 94 -91 335 -328 538 -525 441 -430 432 -418 432 -605 0 -103
-3 -121 -26 -170 -157 -330 -614 -333 -765 -5 -12 28 -26 66 -29 86 -6 30 -53
82 -313 341 l-307 305 -60 13 c-131 27 -239 113 -298 238 -27 56 -32 81 -35
154 -6 134 34 234 127 321 115 108 265 143 413 97z m784 -502 c96 -95 107
-117 78 -150 -16 -17 -22 -13 -125 83 -60 56 -109 107 -109 115 0 13 37 44 53
44 5 0 51 -42 103 -92z"/>
<path d="M1034 3159 c-152 -19 -290 -159 -309 -313 -8 -62 8 -153 37 -210 31
-60 105 -133 167 -163 50 -25 67 -28 156 -28 93 0 105 2 167 33 76 37 125 88
166 172 38 77 43 191 12 272 -61 163 -222 259 -396 237z m192 -87 c57 -29 125
-108 148 -171 25 -69 18 -169 -15 -236 -31 -62 -107 -129 -170 -150 -63 -21
-178 -17 -230 9 -61 29 -116 84 -145 143 -23 46 -28 69 -28 132 1 127 54 214
167 271 58 30 68 31 147 28 61 -3 97 -10 126 -26z"/>
<path d="M932 2957 c-29 -29 -52 -59 -52 -67 0 -8 17 -31 37 -52 l37 -38 -37
-38 c-20 -21 -37 -45 -37 -53 0 -16 100 -119 116 -119 5 0 25 16 44 35 19 19
39 35 45 35 6 0 26 -16 45 -35 19 -19 40 -35 47 -35 16 0 100 76 115 103 8 16
3 27 -33 63 l-43 44 42 43 c23 23 42 46 42 50 0 16 -103 117 -119 117 -8 0
-34 -18 -56 -40 l-41 -40 -39 40 c-21 22 -44 40 -50 40 -6 0 -34 -24 -63 -53z
m108 -62 c19 -19 41 -35 49 -35 8 0 32 17 53 37 l38 37 22 -22 22 -22 -37 -38
c-20 -21 -37 -44 -37 -52 0 -8 17 -31 37 -52 l37 -38 -22 -22 -22 -22 -38 37
c-21 20 -45 37 -53 37 -8 0 -30 -16 -49 -35 -38 -40 -46 -42 -72 -19 -17 16
-16 19 22 60 22 24 40 48 40 52 0 5 -18 29 -39 54 -37 42 -39 46 -23 61 23 24
34 21 72 -18z"/>
<path d="M1321 2416 c-55 -30 -65 -90 -23 -137 26 -29 34 -32 103 -36 82 -4
110 5 142 49 28 38 17 92 -26 118 -38 24 -158 27 -196 6z m169 -61 c26 -32 5
-45 -75 -45 -58 0 -77 3 -81 15 -12 30 15 45 81 45 43 0 66 -5 75 -15z"/>
<path d="M1489 2181 c-20 -20 -29 -39 -29 -61 0 -22 9 -41 29 -61 28 -28 34
-29 115 -29 75 0 88 3 113 24 39 34 39 98 0 132 -25 21 -38 24 -113 24 -81 0
-87 -1 -115 -29z m190 -45 c6 -7 9 -21 5 -30 -5 -13 -21 -16 -79 -16 -77 0
-91 7 -80 40 6 17 15 20 74 20 46 0 72 -5 80 -14z"/>
<path d="M1985 2167 c-58 -19 -82 -34 -133 -81 -139 -128 -162 -315 -57 -474
154 -232 507 -202 631 54 25 51 28 70 28 149 0 78 -3 98 -28 153 -33 72 -108
146 -183 183 -58 28 -195 36 -258 16z m254 -83 c60 -32 122 -103 142 -161 21
-61 16 -169 -10 -230 -27 -62 -93 -126 -159 -156 -71 -31 -174 -28 -246 7
-231 113 -234 430 -3 546 57 29 68 31 142 28 65 -3 90 -10 134 -34z"/>
<path d="M1909 2001 c-21 -22 -29 -39 -29 -66 0 -27 8 -44 29 -66 22 -21 39
-29 66 -29 84 0 127 105 67 163 -40 38 -93 37 -133 -2z m99 -63 c2 -19 -2 -28
-18 -33 -24 -8 -50 10 -50 35 0 24 10 31 40 28 19 -2 26 -10 28 -30z"/>
<path d="M2164 2019 c-27 -14 -54 -60 -54 -93 0 -14 13 -40 28 -57 22 -24 36
-31 65 -31 70 0 102 39 95 113 -5 57 -79 94 -134 68z m60 -55 c22 -8 20 -51
-2 -63 -37 -20 -70 27 -40 57 14 14 20 14 42 6z"/>
<path d="M1933 1788 c-29 -14 -55 -70 -47 -102 23 -92 148 -103 184 -17 34 84
-53 159 -137 119z m80 -70 c8 -12 7 -21 -2 -32 -19 -22 -48 -20 -61 5 -23 41
38 68 63 27z"/>
<path d="M2173 1785 c-38 -16 -53 -42 -53 -90 0 -69 75 -113 135 -81 60 32 72
98 28 145 -34 36 -68 44 -110 26z m77 -85 c0 -25 -30 -41 -53 -29 -23 13 -22
56 1 62 25 5 52 -11 52 -33z"/>
<path d="M260 440 c0 -91 3 -110 15 -110 11 0 15 12 15 45 l0 45 60 0 60 0 0
-45 c0 -38 3 -45 20 -45 19 0 20 7 20 110 0 103 -1 110 -20 110 -17 0 -20 -7
-20 -45 l0 -45 -60 0 -60 0 0 45 c0 33 -4 45 -15 45 -12 0 -15 -19 -15 -110z"/>
<path d="M522 517 c-30 -31 -32 -37 -32 -111 0 -68 2 -77 18 -74 12 2 17 13
17 33 0 29 1 30 57 33 l57 3 3 -33 c2 -22 9 -34 21 -36 15 -3 17 7 17 107 l0
111 -63 0 c-58 0 -66 -3 -95 -33z m118 -42 l0 -35 -55 0 c-45 0 -55 3 -55 17
0 30 31 53 72 53 37 0 38 -1 38 -35z"/>
<path d="M727 543 c-12 -12 -8 -188 5 -201 16 -16 160 -16 176 0 14 14 16 44
3 53 -5 3 -16 -2 -24 -10 -10 -10 -35 -15 -71 -15 l-56 0 0 70 0 70 60 0 c33
0 60 -4 60 -10 0 -5 9 -10 20 -10 23 0 27 29 8 48 -13 13 -169 17 -181 5z"/>
<path d="M950 440 c0 -103 1 -110 20 -110 17 0 20 7 20 45 l0 45 38 0 c44 0
82 -32 82 -68 0 -15 6 -22 20 -22 28 0 27 56 -1 86 l-21 23 21 27 c28 35 29
84 1 84 -14 0 -20 -7 -20 -23 0 -35 -40 -67 -83 -67 l-37 0 0 45 c0 38 -3 45
-20 45 -19 0 -20 -7 -20 -110z"/>
<path d="M1172 533 c2 -13 14 -19 41 -21 l37 -3 0 -90 c0 -82 1 -89 20 -89 19
0 20 7 20 90 l0 90 40 0 c33 0 40 3 40 20 0 19 -7 20 -101 20 -90 0 -100 -2
-97 -17z"/>
<path d="M1400 440 c0 -103 1 -110 20 -110 19 0 20 7 20 110 0 103 -1 110 -20
110 -19 0 -20 -7 -20 -110z"/>
<path d="M1480 440 c0 -91 3 -110 15 -110 10 0 15 11 15 35 l0 35 68 0 c37 0
73 4 80 9 9 5 12 27 10 72 l-3 64 -92 3 -93 3 0 -111z m150 35 l0 -35 -60 0
-60 0 0 35 0 35 60 0 60 0 0 -35z"/>
<path d="M1847 544 c-12 -13 -8 -189 5 -202 16 -16 150 -16 166 0 7 7 12 34
12 60 l0 48 -45 0 c-38 0 -45 -3 -45 -20 0 -16 7 -20 31 -20 24 0 30 -4 27
-17 -3 -15 -14 -18 -63 -18 l-60 0 -3 68 -3 67 66 0 c37 0 65 -4 65 -10 0 -5
7 -10 16 -10 11 0 14 8 12 28 -3 27 -3 27 -88 30 -47 1 -89 0 -93 -4z"/>
<path d="M2102 517 c-30 -31 -32 -37 -32 -110 0 -70 2 -77 20 -77 16 0 20 7
20 35 l0 36 58 -3 c56 -3 57 -4 57 -33 1 -20 6 -31 18 -33 15 -3 17 8 17 107
l0 111 -63 0 c-58 0 -66 -3 -95 -33z m120 -37 c3 -17 2 -32 0 -35 -3 -3 -29
-5 -59 -5 -43 0 -53 3 -53 17 0 30 31 53 70 53 34 0 38 -3 42 -30z"/>
<path d="M2300 440 c0 -103 1 -110 20 -110 17 0 19 8 22 78 l3 77 29 -43 c36
-53 61 -53 95 0 13 21 28 35 32 32 5 -3 9 -36 9 -75 0 -55 3 -69 15 -69 12 0
15 19 15 110 0 99 -2 110 -18 110 -10 0 -35 -22 -55 -50 -21 -27 -41 -50 -46
-50 -4 0 -23 22 -42 50 -24 35 -41 50 -56 50 -22 0 -23 -3 -23 -110z"/>
<path d="M2580 440 l0 -110 95 0 c88 0 95 1 95 20 0 18 -7 20 -75 20 -73 0
-75 1 -75 25 0 24 2 25 65 25 58 0 65 2 65 20 0 18 -7 20 -65 20 -63 0 -65 1
-65 25 0 24 2 25 75 25 68 0 75 2 75 20 0 19 -7 20 -95 20 l-95 0 0 -110z"/>
<path d="M2812 538 c-7 -7 -12 -33 -12 -59 0 -56 6 -59 96 -59 62 0 64 -1 64
-25 0 -24 -3 -25 -60 -25 -33 0 -60 4 -60 10 0 6 -9 10 -20 10 -23 0 -27 -29
-8 -48 16 -16 160 -16 176 0 16 16 16 90 0 106 -7 7 -40 12 -80 12 -66 0 -68
1 -68 25 0 24 3 25 60 25 33 0 60 -4 60 -10 0 -5 9 -10 20 -10 13 0 20 7 20
18 0 33 -22 42 -100 42 -46 0 -81 -5 -88 -12z"/>
</g>
</svg>
